<?xml version="1.0" encoding="utf-8"?>
<svg xmlns="http://www.w3.org/2000/svg" viewBox="0 0 500 500">
  <g id="Camada_1">
    <g transform="matrix(1, 0, 0, 1, -289.110391, -412.597943)">
      <path class="cls-2" d="M 658.127 716.443 L 658.127 550.166 C 658.127 526.334 638.812 507.02 614.979 507.02 L 381.396 507.02 C 357.563 507.02 338.248 526.334 338.248 550.166 L 338.248 784.974 C 338.248 808.807 357.563 828.122 381.396 828.122 L 733.037 828.122 C 742.645 828.122 747.457 816.506 740.667 809.71 L 665.707 734.751 C 660.855 729.897 658.127 723.31 658.127 716.443 Z" style="fill: rgb(8, 132, 254); stroke-width: 0px;"/>
      <path class="cls-3" d="M 580.895 571.677 L 580.895 697.289 C 580.895 736.442 549.453 768.191 510.298 768.191 L 482.808 768.191 C 443.655 768.191 412.906 736.442 412.906 697.289 L 412.906 571.677 C 412.906 569.524 414.655 567.775 416.808 567.775 L 449.649 567.775 C 451.805 567.775 453.557 569.474 453.557 571.628 L 453.557 697.323 C 453.557 713.994 467.293 727.26 483.993 727.26 L 509.293 727.26 C 525.993 727.26 539.729 713.994 539.729 697.323 L 539.729 571.685 C 539.729 569.53 541.477 567.782 543.631 567.782 L 576.993 567.782 C 579.147 567.782 580.895 569.53 580.895 571.677 Z" style="fill: rgb(242, 240, 252); stroke-width: 0px;"/>
    </g>
  </g>
</svg>